
        <svg xmlns="http://www.w3.org/2000/svg" xmlns:xlink="http://www.w3.org/1999/xlink" version="1.1" width="3162.3710412930127" 
        height="710.9072216875912" viewBox="0 0 3162.3710412930127 710.9072216875912">
			
			<g transform="scale(8.118552064650656) translate(10, 10)">
				<defs id="SvgjsDefs4643"></defs><g id="SvgjsG4644" featureKey="symbolFeature-0" transform="matrix(0.7001633671788837,0,0,0.7001633671788837,-0.7701797205899676,-1.3303103809466836)" fill="#ff6600"><rect xmlns="http://www.w3.org/2000/svg" x="47.4" y="1.9" width="5.1" height="5.1"></rect><rect xmlns="http://www.w3.org/2000/svg" x="47.4" y="93.3" width="5.1" height="5.1"></rect><rect xmlns="http://www.w3.org/2000/svg" x="13.9" y="78.7" width="5.1" height="5.1"></rect><rect xmlns="http://www.w3.org/2000/svg" x="79.5" y="78.7" width="5.1" height="5.1"></rect><rect xmlns="http://www.w3.org/2000/svg" x="13.9" y="15.9" width="5.1" height="5.1"></rect><rect xmlns="http://www.w3.org/2000/svg" x="79.5" y="15.9" width="5.1" height="5.1"></rect><rect xmlns="http://www.w3.org/2000/svg" x="1.1" y="47.2" width="5.1" height="5.1"></rect><rect xmlns="http://www.w3.org/2000/svg" x="93.8" y="47.2" width="5.1" height="5.1"></rect><path xmlns="http://www.w3.org/2000/svg" d="M10.4,24.5c-3.8,5.8-6.2,12.2-7.1,19.1l-0.1,0.6h3l0.1-0.5c1-6.7,3.5-13.1,7.3-18.7l0.6-0.8h-3.5L10.4,24.5  z"></path><path xmlns="http://www.w3.org/2000/svg" d="M6.1,55.8L6,55.3H3.1l0.1,0.6c0.9,7.1,3.2,13.6,7,19.6l0.2,0.2h3.5l-0.6-0.8C9.5,69.2,7,62.6,6.1,55.8z"></path><path xmlns="http://www.w3.org/2000/svg" d="M93.7,43.8l0.1,0.5h3l-0.1-0.6c-1-6.9-3.4-13.3-7.1-19.1l-0.2-0.2h-3.5l0.6,0.8  C90.2,30.7,92.7,37.1,93.7,43.8z"></path><path xmlns="http://www.w3.org/2000/svg" d="M93.9,55.3l-0.1,0.5c-0.9,6.8-3.4,13.5-7.2,19.1L86,75.7h3.5l0.2-0.2c3.8-5.9,6.2-12.5,7-19.6l0.1-0.6  L93.9,55.3L93.9,55.3z"></path><path xmlns="http://www.w3.org/2000/svg" d="M74.1,13.2l0.1,0.1h5l-1.3-1C71.6,7.5,64,4.4,56.1,3.4l-0.6-0.1v3L56,6.4C62.5,7.3,68.6,9.5,74.1,13.2z"></path><path xmlns="http://www.w3.org/2000/svg" d="M21.9,12.3l-1.3,1h5l0.1-0.1C31.3,9.5,37.4,7.3,44,6.4l0.5-0.1v-3l-0.6,0.1C35.9,4.4,28.3,7.5,21.9,12.3z"></path><path xmlns="http://www.w3.org/2000/svg" d="M74.6,86.9c-5.6,3.7-12,6.2-18.7,7.1l-0.5,0.1v3L56,97c8.1-1.1,15.8-4.2,22.3-9.2l1.3-1L74.6,86.9  L74.6,86.9z"></path><path xmlns="http://www.w3.org/2000/svg" d="M25.3,86.9l-0.2-0.1h-4.9l1.3,1c6.5,5,14.3,8.1,22.4,9.2l0.6,0.1v-3L44,94C37.3,93.1,30.8,90.6,25.3,86.9z"></path><polygon xmlns="http://www.w3.org/2000/svg" points="36.7,59.6 24.3,49.6 36.8,40.6 39.7,44.7 32.6,49.8 39.8,55.7 "></polygon><polygon xmlns="http://www.w3.org/2000/svg" points="63.2,59.6 60.1,55.7 67.3,49.8 60.2,44.7 63.1,40.6 75.6,49.6 "></polygon><rect xmlns="http://www.w3.org/2000/svg" x="47.7" y="34" transform="matrix(0.9452 0.3264 -0.3264 0.9452 19.1192 -13.6479)" width="5" height="32.4"></rect></g><g id="SvgjsG4645" featureKey="nameFeature-0" transform="matrix(0.7963350983514037,0,0,0.7963350983514037,87.37750398724461,-0.06757164846962027)" fill="#ff6600"><path d="M20.02 11.777000000000001 l0 5.1563 l-6.6992 0 l0 23.066 l-5.8008 0 l0 -23.066 l-6.7383 0 l0 -5.1563 l19.238 0 z M41.728984374999996 16.934 l-10.469 0 l0 6.4063 l9.2773 0 l0 5.0977 l-9.2773 0 l0 6.3867 l10.469 0 l0 5.1758 l-16.367 0 l0 -28.223 l16.367 0 l0 5.1563 z M61.17153125 40.39063 c-8.3008 0 -14.434 -5.6445 -14.434 -14.512 s6.1328 -14.492 14.434 -14.492 c6.2891 0 11.328 3.2227 13.34 8.5742 l-5.4688 1.9922 c-1.25 -3.2813 -4.2383 -5.1758 -7.8711 -5.1758 c-4.8633 0 -8.5938 3.3984 -8.5938 9.1016 s3.7305 9.1211 8.5938 9.1211 c3.6328 0 6.6211 -1.9141 7.8711 -5.1953 l5.4688 1.9922 c-2.0117 5.3516 -7.0508 8.5938 -13.34 8.5938 z M98.017265625 11.777000000000001 l5.8594 0 l0 28.223 l-5.8594 0 l0 -11.602 l-11.934 0 l0 11.602 l-5.8594 0 l0 -28.223 l5.8594 0 l0 11.523 l11.934 0 l0 -11.523 z M132.763328125 40.39063 c-6.0547 0 -10.781 -2.9102 -11.641 -8.2031 l6.0547 -1.3867 c0.39063 3.1641 2.7148 4.8047 5.8203 4.8047 c2.3828 0 4.2773 -1.0547 4.2578 -3.4375 c-0.019531 -2.6563 -3.1445 -3.4961 -6.582 -4.5508 c-4.1406 -1.2891 -8.5742 -2.8125 -8.5742 -8.0078 c0 -5.2539 4.2969 -8.2227 9.9609 -8.2227 c4.9609 0 9.9609 2.0117 11.094 7.4219 l-5.6641 1.4063 c-0.52734 -2.8125 -2.4219 -4.043 -5.0781 -4.043 c-2.3633 0 -4.375 0.97656 -4.375 3.3008 c0 2.168 2.7734 2.8906 5.9766 3.8477 c4.2578 1.2891 9.2969 2.9297 9.2969 8.5547 c0 5.9961 -5.0195 8.5156 -10.547 8.5156 z M162.1285625 40.39063 c-8.3008 0 -14.434 -5.6641 -14.434 -14.512 c0 -8.8672 6.1328 -14.492 14.434 -14.492 c8.2813 0 14.414 5.625 14.414 14.492 c0 8.8477 -6.1328 14.512 -14.414 14.512 z M162.1285625 35.0195 c4.8633 0 8.5938 -3.418 8.5938 -9.1406 c0 -5.7031 -3.7305 -9.1016 -8.5938 -9.1016 s-8.5938 3.3984 -8.5938 9.1016 c0 5.7227 3.7305 9.1406 8.5938 9.1406 z M188.701153125 34.8242 l8.8477 0 l0 5.1758 l-14.707 0 l0 -28.223 l5.8594 0 l0 23.047 z M213.37934375 40.39063 c-6.1914 0 -11.035 -3.1641 -11.035 -10.273 l0 -18.34 l5.8594 0 l0 17.539 c0 4.2969 2.2852 5.8984 5.1758 5.8984 c2.9102 0 5.2148 -1.6211 5.2148 -5.8984 l0 -17.539 l5.8594 0 l0 18.34 c0 7.1094 -4.8633 10.273 -11.074 10.273 z M248.447734375 11.777000000000001 l0 5.1563 l-6.6992 0 l0 23.066 l-5.8008 0 l0 -23.066 l-6.7383 0 l0 -5.1563 l19.238 0 z M253.78901875 40 l0 -28.223 l5.8594 0 l0 28.223 l-5.8594 0 z M280.341453125 40.39063 c-8.3008 0 -14.434 -5.6641 -14.434 -14.512 c0 -8.8672 6.1328 -14.492 14.434 -14.492 c8.2813 0 14.414 5.625 14.414 14.492 c0 8.8477 -6.1328 14.512 -14.414 14.512 z M280.341453125 35.0195 c4.8633 0 8.5938 -3.418 8.5938 -9.1406 c0 -5.7031 -3.7305 -9.1016 -8.5938 -9.1016 s-8.5938 3.3984 -8.5938 9.1016 c0 5.7227 3.7305 9.1406 8.5938 9.1406 z M320.33234375 11.777000000000001 l5.8398 0 l0 28.223 l-6.7773 0 l-12.5 -20.176 l0 20.176 l-5.8398 0 l0 -28.223 l6.6992 0 l12.578 20.059 l0 -20.059 z M343.759421875 40.39063 c-6.0547 0 -10.781 -2.9102 -11.641 -8.2031 l6.0547 -1.3867 c0.39063 3.1641 2.7148 4.8047 5.8203 4.8047 c2.3828 0 4.2773 -1.0547 4.2578 -3.4375 c-0.019531 -2.6563 -3.1445 -3.4961 -6.582 -4.5508 c-4.1406 -1.2891 -8.5742 -2.8125 -8.5742 -8.0078 c0 -5.2539 4.2969 -8.2227 9.9609 -8.2227 c4.9609 0 9.9609 2.0117 11.094 7.4219 l-5.6641 1.4063 c-0.52734 -2.8125 -2.4219 -4.043 -5.0781 -4.043 c-2.3633 0 -4.375 0.97656 -4.375 3.3008 c0 2.168 2.7734 2.8906 5.9766 3.8477 c4.2578 1.2891 9.2969 2.9297 9.2969 8.5547 c0 5.9961 -5.0195 8.5156 -10.547 8.5156 z"></path></g><g id="SvgjsG4646" featureKey="sloganFeature-0" transform="matrix(0.4809038415283535,0,0,0.4809038415283535,87.04194318675906,49.1728086486361)" fill="#ff6600"><path d="M9.7656 8.154 l-5.4102 0 l0 3.8574 l4.7852 0 l0 2.0605 l-4.7852 0 l0 3.8379 l5.4102 0 l0 2.0898 l-7.7734 0 l0 -13.926 l7.7734 0 l0 2.0801 z M33.03222265625 20 l-2.3145 0 l-0.91797 -10.996 l-3.9941 10.996 l-1.4648 0 l-3.9746 -10.977 l-0.92773 10.977 l-2.3242 0 l1.1133 -13.926 l3.252 0 l3.584 9.8438 l3.6133 -9.8438 l3.252 0 z M46.7177765625 6.074 c2.6172 0 4.2871 1.9629 4.2871 4.3848 c0 2.4609 -1.6699 4.3457 -4.2871 4.3457 l-3.2031 0 l0 5.1953 l-2.334 0 l0 -13.926 l5.5371 0 z M46.3466765625 12.8125 c1.5625 0 2.3828 -0.95703 2.3828 -2.3828 c0 -1.377 -0.82031 -2.3828 -2.3828 -2.3828 l-2.832 0 l0 4.7656 l2.832 0 z M64.55415859375 20.18555 c-4.0039 0 -7.0313 -2.7441 -7.0313 -7.1582 c0 -4.4043 3.0273 -7.1484 7.0313 -7.1484 c3.9941 0 7.0215 2.7441 7.0215 7.1484 c0 4.4141 -3.0273 7.1582 -7.0215 7.1582 z M64.55415859375 18.0176 c2.6367 0 4.6973 -1.8262 4.6973 -4.9902 c0 -3.1348 -2.0605 -4.9707 -4.6973 -4.9707 s-4.6973 1.8359 -4.6973 4.9707 c0 3.1641 2.0605 4.9902 4.6973 4.9902 z M81.69723125 20 l-3.8086 -13.926 l2.4316 0 l3.0078 11.006 l3.291 -11.006 l2.0117 0 l3.2813 11.006 l3.0273 -11.006 l2.4219 0 l-3.8086 13.926 l-2.9102 0 l-3.0176 -9.6484 l-3.0176 9.6484 l-2.9102 0 z M112.40476015625 8.154 l-5.4102 0 l0 3.8574 l4.7852 0 l0 2.0605 l-4.7852 0 l0 3.8379 l5.4102 0 l0 2.0898 l-7.7734 0 l0 -13.926 l7.7734 0 l0 2.0801 z M127.7607828125 20 l-3.6133 -6.2109 l-1.5039 0 l0 6.2109 l-2.334 0 l0 -13.926 l4.834 0 c3.0176 0 4.3457 1.8066 4.3457 4.043 c0 1.9434 -1.1523 3.252 -2.998 3.584 l4.0137 6.2988 l-2.7441 0 z M122.6435828125 8.047 l0 4.0137 l2.1582 0 c1.709 0 2.4414 -0.80078 2.4414 -1.9922 c0 -1.1816 -0.73242 -2.0215 -2.4414 -2.0215 l-2.1582 0 z M137.79444609375 20 l0 -13.926 l2.334 0 l0 13.926 l-2.334 0 z M158.267796875 6.074 l2.334 0 l0 13.926 l-2.6172 0 l-6.8359 -10.625 l0 10.625 l-2.3145 0 l0 -13.926 l2.5879 0 l6.8457 10.557 l0 -10.557 z M175.27394140625 20.18555 c-3.9453 0 -6.9336 -2.7051 -6.9336 -7.1191 c0 -4.4434 3.0273 -7.1875 7.0313 -7.1875 c2.6172 0 4.8242 1.1523 6.0352 3.2617 l-2.0605 1.1035 c-0.82031 -1.5527 -2.2852 -2.2852 -3.9746 -2.2852 c-2.6465 0 -4.6777 1.8066 -4.6777 5.0586 c0 3.1836 1.9531 5.0977 4.7656 5.0977 c2.1289 0 3.8965 -1.1426 4.248 -3.5352 l-4.248 0 l0 -1.9238 l6.4844 0 l0 7.3438 l-1.8652 0 l0 -2.2656 c-0.91797 1.543 -2.5391 2.4512 -4.8047 2.4512 z M206.96239921875 12.685500000000001 c1.6113 0.42969 2.6953 1.5137 2.6953 3.4766 c0 2.2754 -1.4746 3.8379 -4.1602 3.8379 l-5.5762 0 l0 -13.926 l4.3652 0 c2.7539 0 4.3652 1.4746 4.3652 3.75 c0 1.2793 -0.57617 2.3242 -1.6895 2.8613 z M204.29639921875 8.047 l-2.1191 0 l0 3.916 l2.3535 0 c1.25 0 1.9531 -0.88867 1.9531 -1.9922 c0 -1.0938 -0.76172 -1.9238 -2.1875 -1.9238 z M205.07759921875 17.9687 c1.582 0 2.3145 -0.9668 2.3145 -2.0605 c0 -1.1426 -0.75195 -2.0996 -2.4023 -2.0996 l-2.8125 0 l0 4.1602 l2.9004 0 z M222.27930625 20.18555 c-2.959 0 -5.2637 -1.6504 -5.2637 -4.9316 l0 -9.1797 l2.3438 0 l0 8.8574 c0 2.2168 1.2793 3.1641 2.9199 3.1641 s2.9395 -0.95703 2.9395 -3.1641 l0 -8.8574 l2.334 0 l0 9.1797 c0 3.2813 -2.3047 4.9316 -5.2734 4.9316 z M240.43794453125 20.18555 c-2.9492 0 -5.1563 -1.4063 -5.6055 -3.8672 l2.4023 -0.55664 c0.25391 1.6016 1.5723 2.4805 3.291 2.4805 c1.3574 0 2.5879 -0.57617 2.5684 -2.041 c-0.019531 -1.5234 -1.709 -1.9629 -3.5352 -2.4805 c-2.1094 -0.61523 -4.2773 -1.3184 -4.2773 -3.877 c0 -2.5977 2.1289 -3.9648 4.7754 -3.9648 c2.4414 0 4.7559 1.0254 5.293 3.5254 l-2.2559 0.56641 c-0.3125 -1.4844 -1.4648 -2.1387 -2.9199 -2.1387 c-1.2988 0 -2.5293 0.55664 -2.5293 1.9727 c0 1.2891 1.4746 1.6895 3.1641 2.1582 c2.1777 0.60547 4.6973 1.3477 4.6973 4.1406 c0 2.8809 -2.4121 4.082 -5.0684 4.082 z M253.2255984375 20 l0 -13.926 l2.334 0 l0 13.926 l-2.334 0 z M273.69894921875 6.074 l2.334 0 l0 13.926 l-2.6172 0 l-6.8359 -10.625 l0 10.625 l-2.3145 0 l0 -13.926 l2.5879 0 l6.8457 10.557 l0 -10.557 z M292.51169375 8.154 l-5.4102 0 l0 3.8574 l4.7852 0 l0 2.0605 l-4.7852 0 l0 3.8379 l5.4102 0 l0 2.0898 l-7.7734 0 l0 -13.926 l7.7734 0 l0 2.0801 z M304.88911640625 20.18555 c-2.9492 0 -5.1563 -1.4063 -5.6055 -3.8672 l2.4023 -0.55664 c0.25391 1.6016 1.5723 2.4805 3.291 2.4805 c1.3574 0 2.5879 -0.57617 2.5684 -2.041 c-0.019531 -1.5234 -1.709 -1.9629 -3.5352 -2.4805 c-2.1094 -0.61523 -4.2773 -1.3184 -4.2773 -3.877 c0 -2.5977 2.1289 -3.9648 4.7754 -3.9648 c2.4414 0 4.7559 1.0254 5.293 3.5254 l-2.2559 0.56641 c-0.3125 -1.4844 -1.4648 -2.1387 -2.9199 -2.1387 c-1.2988 0 -2.5293 0.55664 -2.5293 1.9727 c0 1.2891 1.4746 1.6895 3.1641 2.1582 c2.1777 0.60547 4.6973 1.3477 4.6973 4.1406 c0 2.8809 -2.4121 4.082 -5.0684 4.082 z M322.1493703125 20.18555 c-2.9492 0 -5.1563 -1.4063 -5.6055 -3.8672 l2.4023 -0.55664 c0.25391 1.6016 1.5723 2.4805 3.291 2.4805 c1.3574 0 2.5879 -0.57617 2.5684 -2.041 c-0.019531 -1.5234 -1.709 -1.9629 -3.5352 -2.4805 c-2.1094 -0.61523 -4.2773 -1.3184 -4.2773 -3.877 c0 -2.5977 2.1289 -3.9648 4.7754 -3.9648 c2.4414 0 4.7559 1.0254 5.293 3.5254 l-2.2559 0.56641 c-0.3125 -1.4844 -1.4648 -2.1387 -2.9199 -2.1387 c-1.2988 0 -2.5293 0.55664 -2.5293 1.9727 c0 1.2891 1.4746 1.6895 3.1641 2.1582 c2.1777 0.60547 4.6973 1.3477 4.6973 4.1406 c0 2.8809 -2.4121 4.082 -5.0684 4.082 z"></path></g>
			</g>
		</svg>
	